<?xml version="1.0" encoding="UTF-8"?>
<!-- Generator: visioncortex VTracer 0.6.2 -->
<svg version="1.1" xmlns="http://www.w3.org/2000/svg" width="1280" height="1280">
<path d="M0 0 C1.38991753 -0.00303104 2.7798334 -0.00692522 4.1697464 -0.01159257 C7.93770868 -0.0217574 11.7055746 -0.01972073 15.47354436 -0.01541197 C19.55662735 -0.01292378 23.63968837 -0.02198418 27.72276306 -0.02944946 C35.69896572 -0.04213697 43.67513462 -0.04399795 51.65134567 -0.0416492 C58.13402266 -0.03986062 64.61668946 -0.04162718 71.09936523 -0.04587364 C72.02463363 -0.04646883 72.94990202 -0.04706402 73.90320885 -0.04767724 C75.78321346 -0.04888906 77.66321806 -0.0501032 79.54322267 -0.05131962 C97.13183269 -0.0621704 114.72042349 -0.06004327 132.30903459 -0.05393478 C148.39458807 -0.04875735 164.48008115 -0.06004718 180.56562269 -0.07903299 C197.10503507 -0.09840433 213.64441886 -0.1066693 230.18384266 -0.10290974 C239.46072698 -0.10099797 248.73755977 -0.10348378 258.01443481 -0.11762428 C265.90396575 -0.12952939 273.79341336 -0.13095206 281.68294543 -0.11883412 C285.70628131 -0.1129418 289.72946469 -0.11185608 293.75279045 -0.12383652 C297.43747724 -0.13468129 301.12188392 -0.13160897 304.80655754 -0.11757483 C306.76631558 -0.11367136 308.726086 -0.12448578 310.68581486 -0.13587171 C317.29811322 -0.09524778 322.44822019 0.30299769 328.41186523 3.26069641 C330.66186523 5.76069641 330.66186523 5.76069641 332.41186523 8.26069641 C333.11311523 8.73507141 333.81436523 9.20944641 334.53686523 9.69819641 C337.31162394 12.01049533 337.66375138 13.70715558 338.41186523 17.26069641 C338.95733671 24.15086242 339.17416096 30.29291698 335.41186523 36.26069641 C332.84936523 37.44819641 332.84936523 37.44819641 330.41186523 38.26069641 C329.32020248 40.19400244 329.32020248 40.19400244 328.41186523 42.26069641 C324.06033347 46.31212254 319.3426403 46.3845209 313.61559486 46.3965683 C311.86718125 46.40385492 311.86718125 46.40385492 310.08344615 46.41128874 C308.16892604 46.41173272 308.16892604 46.41173272 306.21572876 46.41218567 C304.84284256 46.4160369 303.46995752 46.4203246 302.09707391 46.42501116 C298.32516164 46.43664105 294.55326146 46.44213293 290.78133488 46.44664598 C286.71307549 46.45259885 282.64483213 46.4642657 278.57658386 46.47528076 C271.52670337 46.49362795 264.47682251 46.50847459 257.42692947 46.52105713 C247.22632806 46.53935414 237.02574954 46.56401912 226.82516627 46.59043103 C210.26553166 46.63322632 193.70589072 46.67233922 177.14624023 46.70845032 C175.65942368 46.71169452 175.65942368 46.71169452 174.14257042 46.71500427 C167.10733557 46.73033117 160.07210043 46.74552747 153.03686523 46.76069641 C145.00398743 46.77801868 136.97110976 46.7954042 128.93823242 46.8129425 C127.94883433 46.81510137 126.95943625 46.81726024 125.9400564 46.81948453 C109.44506423 46.85559624 92.95008351 46.89555059 76.45510709 46.9382453 C66.27998646 46.9643947 56.1048693 46.98705552 45.92973123 47.00522888 C38.95790111 47.01789935 31.98608455 47.03402685 25.01426841 47.05287802 C20.99118668 47.06363037 16.96811807 47.0727523 12.94502449 47.07757378 C9.26126299 47.08201361 5.57754109 47.09097825 1.89379852 47.103517 C-0.06820415 47.1090116 -2.03021856 47.10964749 -3.99222887 47.11010408 C-9.62606875 47.13347886 -15.04147616 47.23759146 -20.58813477 48.26069641 C-20.75313477 49.00319641 -20.91813477 49.74569641 -21.08813477 50.51069641 C-22.77926556 53.61110287 -23.29294545 53.7465516 -26.40063477 55.01069641 C-31.01631731 57.02223256 -32.41088467 59.83420458 -34.38500977 64.33491516 C-35.58813477 66.26069641 -35.58813477 66.26069641 -37.72875977 67.03022766 C-38.34235352 67.10628235 -38.95594727 67.18233704 -39.58813477 67.26069641 C-40.55574911 72.92928958 -40.7297592 78.40387768 -40.71676922 84.14772892 C-40.71852226 85.13157661 -40.72027529 86.11542431 -40.72208145 87.12908557 C-40.72674233 90.43379855 -40.72427571 93.73846755 -40.72184753 97.04318237 C-40.72371545 99.43320738 -40.72601607 101.82323208 -40.72871286 104.2132563 C-40.73355934 109.41375605 -40.73528481 114.61424726 -40.73425674 119.81474876 C-40.73273171 127.54801152 -40.73689375 135.28126398 -40.74213137 143.01452473 C-40.75180272 157.6285351 -40.75461551 172.24254197 -40.75518843 186.85655517 C-40.75564786 198.13923337 -40.75770564 209.42191019 -40.76088905 220.70458794 C-40.76178658 223.95151692 -40.76267639 227.19844592 -40.76356393 230.44537491 C-40.76378498 231.25254575 -40.76400603 232.05971659 -40.76423377 232.89134716 C-40.77038778 255.59470465 -40.77433434 278.29806166 -40.7738905 301.00142002 C-40.77387492 301.85738269 -40.77385934 302.71334536 -40.77384329 303.59524629 C-40.77376018 307.93370476 -40.77366114 312.27216323 -40.77355858 316.6106217 C-40.77353863 317.4722702 -40.77351869 318.33391871 -40.77349814 319.22167777 C-40.7734577 320.96413932 -40.7734159 322.70660087 -40.77337275 324.44906242 C-40.7727597 351.5717446 -40.78027198 378.69441429 -40.79394531 405.8170929 C-40.80929702 436.28165554 -40.81791213 466.74620998 -40.81698209 497.21077675 C-40.81690746 500.45739138 -40.81685875 503.70400602 -40.81682777 506.95062065 C-40.81681029 508.14974178 -40.81681029 508.14974178 -40.81679246 509.37308758 C-40.81676166 522.25064129 -40.82315368 535.12818416 -40.83176004 548.00573464 C-40.84022575 560.94002453 -40.84123493 573.87429853 -40.83465072 586.80858964 C-40.83094818 594.4969794 -40.83280838 602.18532098 -40.84259306 609.87370565 C-40.8492749 615.6073391 -40.84555905 621.34092754 -40.83771984 627.07455777 C-40.8361744 629.39947387 -40.83803987 631.72439514 -40.84357991 634.04930515 C-40.85059187 637.1994587 -40.84538425 640.34936033 -40.83702374 643.49950504 C-40.844476 644.86623454 -40.844476 644.86623454 -40.85207883 646.26057473 C-40.81791383 652.31313661 -40.57394866 657.22396421 -36.15063477 661.76069641 C-35.30500977 662.58569641 -34.45938477 663.41069641 -33.58813477 664.26069641 C-33.11375977 665.29194641 -32.63938477 666.32319641 -32.15063477 667.38569641 C-30.17790454 671.01552003 -28.26291896 671.53579771 -24.58813477 673.26069641 C-23.22174135 674.90036851 -21.88300298 676.56397255 -20.58813477 678.26069641 C-9.02702277 682.11440041 5.12961658 680.40067056 17.18579102 680.38768005 C19.51398302 680.38883311 21.84217484 680.39042188 24.17036629 680.3924073 C30.55057928 680.39657517 36.93077729 680.3945214 43.31099033 680.39142108 C49.49065945 680.38889948 55.67032709 680.3920572 61.84999579 680.39456845 C75.26486821 680.39982719 88.67973586 680.39938058 102.09460872 680.39648953 C113.83433357 680.39397198 125.57405668 680.39331821 137.31378174 680.39451218 C138.48278156 680.39462675 138.48278156 680.39462675 139.67539753 680.39474365 C142.83912515 680.395055 146.00285277 680.3953734 149.16658039 680.39570341 C178.83256685 680.39876103 208.49855027 680.39599114 238.16453627 680.39060651 C264.50935067 680.38586106 290.85416025 680.3862857 317.19897461 680.3910675 C346.81140403 680.39642447 376.42383077 680.39854416 406.0362606 680.39545524 C409.19415665 680.39513453 412.35205269 680.39482169 415.50994873 680.39451218 C416.28747852 680.3944331 417.06500831 680.39435402 417.86609961 680.39427255 C429.59719621 680.39313604 441.32829087 680.39446355 453.05938721 680.39699173 C466.40084998 680.39985266 479.74230724 680.39913258 493.08376932 680.39371099 C499.8902384 680.39103612 506.69669707 680.39005269 513.5031662 680.39336014 C519.73554654 680.39634281 525.96790799 680.39469738 532.20028663 680.38938259 C534.45315461 680.38826683 536.7060242 680.38883091 538.95889115 680.39125837 C557.0026318 681.83924721 557.0026318 681.83924721 573.16186523 677.07319641 C573.90436523 676.14507141 574.64686523 675.21694641 575.41186523 674.26069641 C576.74580764 673.25415164 578.10194712 672.27661302 579.47436523 671.32319641 C583.03505771 668.72449215 585.10614824 666.04866004 587.41186523 662.26069641 C588.43304827 661.34638459 588.43304827 661.34638459 589.47486126 660.41360182 C591.86522251 657.75680723 591.98616499 656.47502125 592.15392876 652.93920994 C592.20919786 651.77614736 592.26446697 650.61308478 592.32141089 649.41477787 C592.55075813 640.41228469 592.54858267 631.40924186 592.53884888 622.40447998 C592.54000215 620.07954972 592.54159107 617.75461964 592.54357612 615.42968994 C592.54774099 609.06313786 592.5456916 602.69660081 592.5425899 596.33004868 C592.5400668 590.16216435 592.54322664 583.99428148 592.54573727 577.82639757 C592.55099424 564.43849352 592.55055013 551.05059426 592.54765836 537.66268976 C592.54514031 525.94715422 592.54448726 514.23162043 592.545681 502.51608467 C592.54575738 501.73820655 592.54583377 500.96032842 592.54591247 500.15887823 C592.54622382 497.00102888 592.54654222 493.84317952 592.54687223 490.68533017 C592.5499294 461.0786253 592.54716063 431.47192347 592.54177534 401.86521908 C592.53702947 375.57394752 592.53745497 349.28268081 592.54223633 322.9914093 C592.54759329 293.43647136 592.54971303 263.88153611 592.54662406 234.32659775 C592.54630336 231.17489596 592.54599052 228.02319417 592.545681 224.87149239 C592.54560192 224.09549225 592.54552285 223.31949211 592.54544137 222.51997681 C592.54430491 210.81245489 592.54563228 199.10493491 592.54816055 187.39741325 C592.55102145 174.08342307 592.55030145 160.76943841 592.54487981 147.45544892 C592.54220498 140.66314975 592.54122146 133.870861 592.54452896 127.07856178 C592.54751168 120.85917429 592.54586613 114.63980572 592.54055141 108.42041994 C592.53943568 106.17229244 592.53999968 103.92416335 592.5424272 101.67603689 C593.83264703 83.33137461 593.83264703 83.33137461 589.41186523 66.26069641 C588.60749023 65.64194641 587.80311523 65.02319641 586.97436523 64.38569641 C584.41186523 62.26069641 584.41186523 62.26069641 583.09936523 59.26069641 C581.01128509 55.54855393 579.13077595 54.86498143 575.25170898 53.41304016 C572.72942886 51.83326811 572.4086592 49.9953491 571.41186523 47.26069641 C570.50795075 47.25738626 569.60403627 47.25407612 568.67273045 47.25066566 C546.66322288 47.16939213 524.6537838 47.07728535 502.64437199 46.97316933 C492.0007222 46.92307966 481.35707997 46.8766363 470.71337891 46.83882141 C461.43470924 46.8058469 452.15609889 46.76598552 442.87749475 46.71790636 C437.96603723 46.69269566 433.05461878 46.67089838 428.14311409 46.65735245 C423.51630314 46.64448278 418.88962655 46.62237574 414.26288986 46.59331322 C412.5686622 46.5842757 410.87441293 46.57855619 409.18016243 46.57648277 C387.75386759 46.54557675 387.75386759 46.54557675 382.84936523 41.76069641 C381.41186523 39.26069641 381.41186523 39.26069641 381.41186523 37.26069641 C380.64874023 37.03382141 379.88561523 36.80694641 379.09936523 36.57319641 C375.7216057 34.92359292 375.01436436 33.63656632 373.41186523 30.26069641 C373.01342773 26.88569641 373.01342773 26.88569641 373.03686523 23.26069641 C373.02913086 22.06444641 373.02139648 20.86819641 373.01342773 19.63569641 C373.7283791 13.57963776 377.07197184 10.29780655 381.41186523 6.26069641 C381.88881836 5.80179016 382.36577148 5.34288391 382.85717773 4.87007141 C388.27758908 -0.06789494 393.59061646 0.13637039 400.64489746 0.12698364 C401.70357757 0.12358531 401.70357757 0.12358531 402.78364515 0.12011832 C405.13694893 0.11381347 407.4901946 0.11460544 409.84350586 0.11543274 C411.53594029 0.11243891 413.22837403 0.10903586 414.92080688 0.10525513 C419.51215792 0.09643016 424.10349031 0.09407754 428.69484901 0.09343934 C431.56845416 0.09272758 434.4420546 0.09059078 437.31565857 0.08794212 C447.35586853 0.07869117 457.39606522 0.07460661 467.4362793 0.07539368 C476.76900187 0.07599325 486.10166642 0.06546437 495.43437433 0.04965001 C503.46522367 0.03653072 511.49605416 0.03121167 519.52691412 0.03184909 C524.31494531 0.03210294 529.102925 0.02931484 533.89094543 0.01867104 C538.40208463 0.00891686 542.91312389 0.00896051 547.42426682 0.01618767 C549.06965152 0.01722473 550.71504268 0.0149236 552.36041641 0.00882721 C580.26982039 -0.0877879 580.26982039 -0.0877879 587.41186523 6.26069641 C588.07186523 6.92069641 588.73186523 7.58069641 589.41186523 8.26069641 C591.48361111 8.8644787 593.56948951 9.42032537 595.66186523 9.94819641 C601.09464025 11.54642221 603.79427301 12.95175099 607.01733398 17.53804016 C608.65340593 19.55907021 610.27076252 20.50543293 612.53686523 21.76069641 C615.52495194 23.47303452 617.01571283 24.82097638 618.59936523 27.88569641 C620.06920624 31.37850225 620.06920624 31.37850225 622.91186523 32.57319641 C627.80332199 35.87492972 629.12258224 42.7038867 630.41186523 48.26069641 C632.88686523 48.75569641 632.88686523 48.75569641 635.41186523 49.26069641 C635.41186523 256.83069641 635.41186523 464.40069641 635.41186523 678.26069641 C633.76186523 678.26069641 632.11186523 678.26069641 630.41186523 678.26069641 C630.14374023 679.43632141 629.87561523 680.61194641 629.59936523 681.82319641 C627.68888667 689.26747497 625.96765081 693.02675156 619.41186523 697.26069641 C618.39563866 699.2525005 617.39473532 701.25222276 616.41186523 703.26069641 C614.03686523 704.82319641 614.03686523 704.82319641 611.41186523 706.26069641 C609.20765892 708.35994052 607.09078597 710.46760282 605.11108398 712.78022766 C602.8704208 714.73243765 600.64853311 715.47538308 597.84936523 716.44819641 C596.87870117 716.7923761 595.90803711 717.13655579 594.90795898 717.49116516 C592.41186523 718.26069641 592.41186523 718.26069641 590.41186523 718.26069641 C590.41186523 719.91069641 590.41186523 721.56069641 590.41186523 723.26069641 C382.84186523 723.26069641 175.27186523 723.26069641 -38.58813477 723.26069641 C-38.91813477 721.61069641 -39.24813477 719.96069641 -39.58813477 718.26069641 C-40.40797852 718.01835266 -41.22782227 717.77600891 -42.07250977 717.52632141 C-43.15016602 717.19116516 -44.22782227 716.85600891 -45.33813477 716.51069641 C-46.93915039 716.02343079 -46.93915039 716.02343079 -48.57250977 715.52632141 C-51.75635742 714.1900952 -53.34325546 712.84078393 -55.58813477 710.26069641 C-57.84419326 707.85423402 -59.74424767 706.1663782 -62.58813477 704.44819641 C-65.65906718 702.20897486 -66.83951534 700.31107753 -68.52563477 696.95991516 C-69.64042648 694.93423573 -69.64042648 694.93423573 -72.58813477 693.13569641 C-76.7675365 690.00376379 -77.28621095 685.17720623 -78.58422852 680.35444641 C-79.89823093 676.30506933 -81.72725888 674.34743092 -84.58813477 671.26069641 C-88.40129612 663.0623995 -87.73707963 652.75859473 -87.71676922 643.87537766 C-87.71852226 642.8862342 -87.72027529 641.89709075 -87.72208145 640.87797326 C-87.72671575 637.5792435 -87.72428261 634.28055832 -87.72184753 630.98182678 C-87.7237168 628.58651419 -87.72601796 626.1912019 -87.72871286 623.79589009 C-87.73354836 618.59598967 -87.73528705 613.39609778 -87.73425674 608.1961956 C-87.73272833 600.46340666 -87.73690126 592.73062797 -87.74213137 584.99784102 C-87.75179119 570.38172212 -87.75461509 555.76560674 -87.75518843 541.14948502 C-87.75564834 529.86078227 -87.75770862 518.5720809 -87.76088905 507.2833786 C-87.76178662 504.03146275 -87.76267644 500.7795469 -87.76356393 497.52763104 C-87.76378498 496.71914917 -87.76400603 495.9106673 -87.76423377 495.07768598 C-87.77038602 472.34360877 -87.77433453 449.60953203 -87.7738905 426.87545395 C-87.77387492 426.01871659 -87.77385934 425.16197923 -87.77384329 424.27928014 C-87.77376018 419.93718354 -87.77366114 415.59508694 -87.77355858 411.25299034 C-87.77353863 410.39066609 -87.77351869 409.52834184 -87.77349814 408.63988655 C-87.7734577 406.8960579 -87.7734159 405.15222925 -87.77337275 403.4084006 C-87.77276002 376.27826858 -87.78026697 349.14814907 -87.79394531 322.01802063 C-87.80931392 291.52294475 -87.81791108 261.02787709 -87.81698209 230.5327971 C-87.81690746 227.27962383 -87.81685875 224.02645056 -87.81682777 220.77327728 C-87.81681612 219.9722897 -87.81680447 219.17130212 -87.81679246 218.34604219 C-87.81676172 205.47048575 -87.82314052 192.59494019 -87.83176004 179.71938698 C-87.8402468 166.77422751 -87.84121845 153.82908391 -87.83465072 140.8839232 C-87.83096202 133.19962712 -87.83276706 125.51537933 -87.84259306 117.83108839 C-87.84931844 112.08468025 -87.8455213 106.3383166 -87.83771984 100.59191158 C-87.83618484 98.27368436 -87.838001 95.95545187 -87.84357991 93.63723084 C-87.91703839 60.93715766 -87.91703839 60.93715766 -82.58813477 53.26069641 C-82.0609082 52.76182922 -81.53368164 52.26296204 -80.99047852 51.74897766 C-79.14174582 49.78695215 -78.7941262 48.05014005 -78.15063477 45.44819641 C-76.89540262 40.96989422 -75.55120793 37.85230024 -72.58813477 34.26069641 C-71.25480143 33.59402974 -69.9214681 32.92736308 -68.58813477 32.26069641 C-67.87565745 30.61309261 -67.21413094 28.94306112 -66.58813477 27.26069641 C-64.03115024 23.55747744 -61.62242974 21.2778439 -57.58813477 19.26069641 C-56.92813477 19.26069641 -56.26813477 19.26069641 -55.58813477 19.26069641 C-55.33161133 18.65354797 -55.07508789 18.04639954 -54.81079102 17.42085266 C-52.01549161 12.48219269 -46.1882447 10.32557705 -40.96313477 8.76069641 C-40.26961914 8.58538391 -39.57610352 8.41007141 -38.86157227 8.22944641 C-36.33091296 7.30231734 -36.33091296 7.30231734 -33.91249752 4.78116244 C-30.50719928 1.90205716 -27.58529714 1.39972207 -23.12489319 0.96448994 C-22.42510473 0.89377009 -21.72531628 0.82305023 -21.00432211 0.75018736 C-14.01040556 0.09555596 -7.02136542 -0.02120497 0 0 Z " fill="#000000" transform="translate(644.588134765625,556.7393035888672)"/>
<path d="M0 0 C207.9 0 415.8 0 630 0 C630.33 1.65 630.66 3.3 631 5 C631.66386719 5.18175781 632.32773437 5.36351562 633.01171875 5.55078125 C642.51868132 8.25714286 642.51868132 8.25714286 646 11 C646.433125 11.78375 646.86625 12.5675 647.3125 13.375 C649.09806235 16.15254144 650.13521882 16.80324081 652.9375 18.375 C655.92896523 20.10776128 657.54343815 21.41695538 659.125 24.5 C660.74932555 28.1575942 660.74932555 28.1575942 664 30.125 C668.17940173 33.25693262 668.69807618 38.08349018 669.99609375 42.90625 C671.31009616 46.95562708 673.13912411 48.91326549 676 52 C680.78006411 62.27713784 679.14688711 75.62646813 679.14044189 86.73855591 C679.14302934 88.53179929 679.14604355 90.32504209 679.1494453 92.11828411 C679.15747318 97.02434168 679.15930249 101.93038459 679.16004276 106.83644795 C679.16190054 112.1357304 679.16945118 117.43500536 679.17617798 122.73428345 C679.18972883 134.30824636 679.1957801 145.8822058 679.20018864 157.45617533 C679.20295488 164.68418227 679.20719276 171.91218789 679.21169281 179.14019394 C679.22387805 199.15908029 679.2341809 219.17796557 679.2375679 239.19685555 C679.23778747 240.47664844 679.23800703 241.75644134 679.23823325 243.07501584 C679.23845153 244.35781503 679.23866981 245.64061422 679.2388947 246.96228611 C679.23933816 249.56160871 679.23978473 252.16093131 679.24023438 254.76025391 C679.2404558 256.04959941 679.24067723 257.33894491 679.24090537 258.66736148 C679.24485716 279.57981122 679.26232612 300.4922262 679.2855939 321.4046625 C679.30929859 342.88320129 679.32176924 364.36172261 679.32293582 385.84027469 C679.32385273 397.89674137 679.32960982 409.95316267 679.34775543 422.00961685 C679.36314403 432.27003532 679.36828396 442.53039435 679.36001733 452.79082216 C679.35610732 458.02534715 679.35705788 463.2597524 679.37107468 468.4942627 C679.38379127 473.28696019 679.38263578 478.07944769 679.37048396 482.8721448 C679.36852317 484.60480651 679.37162301 486.33748298 679.38032833 488.07012393 C679.45790242 504.55485515 679.45790242 504.55485515 676 512 C673.5 513.75 673.5 513.75 671 515 C669.98812105 516.65948148 668.9873454 518.32580562 668 520 C664.3605044 522.58689638 660.35407068 522.33206049 656.0625 522.3125 C655.35931641 522.32861328 654.65613281 522.34472656 653.93164062 522.36132812 C649.43840099 522.36553922 646.56132842 521.77743071 643 519 C642.33333333 517.66666667 641.66666667 516.33333333 641 515 C640.175 514.505 639.35 514.01 638.5 513.5 C635.70351088 511.82210653 635.04027993 511.0341498 634 508 C633.08501592 503.46387292 632.87248946 499.15482697 632.86692142 494.5317688 C632.8646784 493.79726588 632.86243537 493.06276296 632.86012438 492.30600238 C632.85380486 489.84347196 632.85454747 487.38099472 632.85523987 484.91845703 C632.8521052 483.13564029 632.84853018 481.35282429 632.84455246 479.57000923 C632.83485961 474.669668 632.83130483 469.76933842 632.82870948 464.86898899 C632.82481404 459.58467108 632.81517693 454.30036345 632.80615234 449.01605225 C632.7912153 439.85882781 632.77967015 430.7016042 632.77020454 421.54437256 C632.75633345 408.29798154 632.7351464 395.0516096 632.71177601 381.80523229 C632.67385901 360.30570623 632.63889224 338.80617672 632.60717773 317.30664062 C632.60527724 316.01966192 632.60337675 314.73268321 632.60141867 313.40670514 C632.57457669 295.13557114 632.55070456 276.86443445 632.52803367 258.59329486 C632.52643637 257.30631615 632.52483906 256.01933744 632.52319336 254.69335938 C632.52159989 253.40794605 632.52000643 252.12253272 632.51836468 250.79816747 C632.49161471 229.37967938 632.45722436 207.96121171 632.41653961 186.54274559 C632.39174326 173.3265454 632.37342851 160.11036718 632.363384 146.8941474 C632.35600315 137.84227501 632.34149231 128.79043213 632.32131977 119.73857927 C632.30990913 114.51259527 632.30179549 109.2866589 632.30232811 104.06066132 C632.30275487 99.27904904 632.29407568 94.49754404 632.27807831 89.71595931 C632.27391348 87.98388134 632.27313606 86.25179132 632.27604241 84.51971078 C632.27950316 82.16908936 632.2707493 79.81881818 632.25891972 77.4682312 C632.25718347 76.1614485 632.25544722 74.85466579 632.25365835 73.50828362 C631.7611449 66.69645646 629.7905462 63.67370361 625 59 C624.525625 57.96875 624.05125 56.9375 623.5625 55.875 C621.58976977 52.24517638 619.6747842 51.7248987 616 50 C614.63360658 48.3603279 613.29486821 46.69672386 612 45 C600.43888801 41.146296 586.28224866 42.86002585 574.22607422 42.87301636 C571.89788221 42.8718633 569.56969039 42.87027453 567.24149895 42.86828911 C560.86128595 42.86412124 554.48108795 42.86617501 548.1008749 42.86927533 C541.92120578 42.87179693 535.74153814 42.86863921 529.56186944 42.86612797 C516.14699703 42.86086922 502.73212938 42.86131583 489.31725651 42.86420688 C477.57753166 42.86672443 465.83780856 42.8673782 454.0980835 42.86618423 C453.31875028 42.86610785 452.53941707 42.86603146 451.7364677 42.86595276 C448.57274008 42.86564142 445.40901247 42.86532301 442.24528485 42.864993 C412.57929839 42.86193538 382.91331496 42.86470527 353.24732897 42.8700899 C326.90251456 42.87483535 300.55770499 42.87441071 274.21289062 42.86962891 C244.60046121 42.86427194 214.98803447 42.86215225 185.37560463 42.86524117 C182.21770859 42.86556188 179.05981255 42.86587472 175.9019165 42.86618423 C175.12438671 42.86626331 174.34685692 42.86634239 173.54576562 42.86642386 C161.81466902 42.86756037 150.08357436 42.86623286 138.35247803 42.86370468 C125.01101526 42.86084375 111.669558 42.86156383 98.32809591 42.86698543 C91.52162684 42.86966029 84.71516816 42.87064372 77.90869904 42.86733627 C71.67631869 42.8643536 65.44395724 42.86599903 59.21157861 42.87131383 C56.95871062 42.87242958 54.70584104 42.8718655 52.45297408 42.86943804 C34.40923343 41.42144921 34.40923343 41.42144921 18.25 46.1875 C17.5075 47.115625 16.765 48.04375 16 49 C14.6660576 50.00654478 13.30991812 50.98408339 11.9375 51.9375 C8.37680753 54.53620426 6.30571699 57.21203637 4 61 C3.31921131 61.61974764 2.63842262 62.23949528 1.93700397 62.87802315 C-4.60922043 70.04937481 -1.13711853 90.36798591 -1.12698364 99.77392578 C-1.1281367 102.10211779 -1.12972547 104.43030961 -1.13171089 106.75850105 C-1.13587876 113.13871405 -1.13382499 119.51891205 -1.13072467 125.8991251 C-1.12820307 132.07879422 -1.13136079 138.25846186 -1.13387203 144.43813056 C-1.13913078 157.85300297 -1.13868417 171.26787062 -1.13579312 184.68274349 C-1.13327557 196.42246834 -1.1326218 208.16219144 -1.13381577 219.9019165 C-1.13389215 220.68124972 -1.13396854 221.46058293 -1.13404724 222.2635323 C-1.13435858 225.42725992 -1.13467699 228.59098753 -1.135007 231.75471515 C-1.13806462 261.42070161 -1.13529473 291.08668504 -1.1299101 320.75267103 C-1.12516465 347.09748544 -1.12558929 373.44229501 -1.13037109 399.78710938 C-1.13572806 429.39953879 -1.13784775 459.01196553 -1.13475883 488.62439537 C-1.13443812 491.78229141 -1.13412528 494.94018745 -1.13381577 498.0980835 C-1.13369715 499.26437818 -1.13369715 499.26437818 -1.13357614 500.45423438 C-1.13243963 512.18533098 -1.13376714 523.91642564 -1.13629532 535.64752197 C-1.13915625 548.98898474 -1.13843617 562.330442 -1.13301457 575.67190409 C-1.13033971 582.47837316 -1.12935628 589.28483184 -1.13266373 596.09130096 C-1.1356464 602.32368131 -1.13400097 608.55604276 -1.12868617 614.78842139 C-1.12757042 617.04128938 -1.1281345 619.29415896 -1.13056196 621.54702592 C-2.42318523 639.91066838 -2.42318523 639.91066838 2 657 C2.804375 657.61875 3.60875 658.2375 4.4375 658.875 C7 661 7 661 8.3125 664 C10.413241 667.73465066 12.33426691 668.3998448 16.14453125 670.05859375 C18.49297702 671.25012097 19.47694658 672.89673576 21 675 C25.09446592 676.16657858 29.10414872 676.12797462 33.33959675 676.13307858 C34.07234663 676.1353216 34.80509651 676.13756463 35.56005093 676.13987562 C38.02265926 676.14620731 40.48521456 676.14545187 42.9478302 676.14476013 C44.7283585 676.14789406 46.50888607 676.15146891 48.28941268 676.15544754 C53.18815203 676.16514934 58.08687973 676.16869664 62.98562729 676.17129052 C68.2665927 676.17518334 73.54754779 676.18482069 78.82850647 676.19384766 C87.98192447 676.20879048 97.13534164 676.22033316 106.28876686 676.22979546 C119.53185698 676.24366384 132.77492799 676.26485088 146.01800438 676.28822399 C167.51468396 676.32614932 189.011367 676.36111295 210.50805664 676.39282227 C211.79507623 676.39472276 213.08209582 676.39662325 214.40811601 676.39858133 C232.67325025 676.42541397 250.93838718 676.4492878 269.203527 676.47196633 C270.48963701 676.47356363 271.77574703 676.47516094 273.10083008 676.47680664 C274.38537532 676.47840011 275.66992057 676.47999357 276.99339143 676.48163532 C298.40507742 676.50839472 319.81674303 676.54279021 341.22840708 676.58346039 C354.4391609 676.60824584 367.64989279 676.62656671 380.86066618 676.636616 C389.91209535 676.64400254 398.96349509 676.65852207 408.01490477 676.67868023 C413.23910433 676.69007984 418.46325637 676.69820521 423.68746948 676.69767189 C428.46984298 676.69724437 433.25210957 676.70595102 438.03445562 676.72192169 C439.76458025 676.72607813 441.49471691 676.72686999 443.22484408 676.72395759 C445.57764946 676.72048323 447.93010846 676.72928159 450.28287983 676.74108028 C451.58944516 676.74281653 452.8960105 676.74455278 454.24216872 676.74634165 C459.27833032 677.08628891 464.2663188 677.55526567 468.25 680.875 C468.8275 681.57625 469.405 682.2775 470 683 C470.680625 683.680625 471.36125 684.36125 472.0625 685.0625 C472.701875 685.701875 473.34125 686.34125 474 687 C474.8353125 687.804375 474.8353125 687.804375 475.6875 688.625 C478.77053692 691.85484821 478.2200896 695.61382815 478.25 699.8125 C478.270625 700.52470703 478.29125 701.23691406 478.3125 701.97070312 C478.34610435 706.51149113 477.82110599 709.40326147 475 713 C474.360625 713.309375 473.72125 713.61875 473.0625 713.9375 C470.68025304 714.9310817 470.68025304 714.9310817 469.25 718 C466.36472431 721.84703425 463.52925752 722.25829093 459 723 C456.43086586 723.17133604 453.85441915 723.25104271 451.27957821 723.25168228 C450.54208722 723.25458916 449.80459624 723.25749604 449.04475704 723.26049101 C446.58394771 723.26776527 444.12338974 723.26085971 441.6625824 723.25396729 C439.8762037 723.25627276 438.08982594 723.25944986 436.30345017 723.26342177 C431.40217529 723.27176704 426.50097834 723.26764562 421.59970319 723.26144934 C416.31047691 723.25692455 411.02126403 723.26390891 405.73204041 723.26940918 C395.37144488 723.2783058 385.01087832 723.27637958 374.65028166 723.2705839 C366.22620833 723.26606678 357.80214312 723.26545473 349.37806892 723.26763153 C348.17897691 723.267938 346.97988489 723.26824446 345.74445676 723.26856022 C343.308417 723.26919968 340.87237724 723.2698481 338.43633748 723.2705054 C315.58694379 723.27620992 292.73756614 723.26964977 269.88817508 723.25890467 C250.29775646 723.24997704 230.70736155 723.25151446 211.11694336 723.26074219 C188.36004736 723.27145644 165.60316545 723.27565217 142.84626728 723.26951766 C140.41705867 723.26888058 137.98785005 723.26825184 135.55864143 723.26763153 C134.36348816 723.26732298 133.16833489 723.26701443 131.93696485 723.26669653 C123.53012621 723.26497246 115.12329653 723.26787865 106.71645927 723.27259064 C96.46053672 723.27821265 86.20464476 723.27665562 75.94872569 723.26602915 C70.71958165 723.26078897 65.49048853 723.25868729 60.26134491 723.26532745 C55.46639791 723.27132388 50.67154864 723.26795131 45.87661041 723.25737235 C44.14981175 723.25515379 42.42300469 723.2562395 40.69621151 723.26112393 C12.36483057 723.33506065 12.36483057 723.33506065 4 717 C3.34 716.34 2.68 715.68 2 715 C-0.07174588 714.39621771 -2.15762427 713.84037105 -4.25 713.3125 C-9.68277501 711.7142742 -12.38240778 710.30894543 -15.60546875 705.72265625 C-17.24154069 703.70162621 -18.85889728 702.75526348 -21.125 701.5 C-24.11308671 699.78766189 -25.6038476 698.43972004 -27.1875 695.375 C-28.657341 691.88219416 -28.657341 691.88219416 -31.5 690.6875 C-36.39145676 687.38576669 -37.71071701 680.55680971 -39 675 C-40.65 674.67 -42.3 674.34 -44 674 C-44 466.1 -44 258.2 -44 44 C-42.35 44 -40.7 44 -39 44 C-38.81824219 43.33613281 -38.63648438 42.67226563 -38.44921875 41.98828125 C-35.0946978 30.20445123 -35.0946978 30.20445123 -30.5 27.5625 C-27.28573548 25.55358468 -26.61501267 23.37046123 -25 20 C-23.0527998 18.24123852 -21.42385515 17.17219115 -19 16.1875 C-16.71618356 15.06218225 -16.71618356 15.06218225 -15.4375 12.125 C-11.89811131 7.58732219 -7.44458424 6.46917353 -2 5 C-1.34 5 -0.68 5 0 5 C0 3.35 0 1.7 0 0 Z " fill="#000000" transform="translate(44,0)"/>
<path d="M0 0 C3.18697362 2.00917902 4.12114943 3.54396029 5.875 6.8125 C6.720625 7.328125 7.56625 7.84375 8.4375 8.375 C13.84410808 13.78160808 12.95854791 23.48898594 13.421875 30.73046875 C13.46618652 31.41572632 13.51049805 32.10098389 13.55615234 32.80700684 C13.66383849 34.47541456 13.76962039 36.14394501 13.875 37.8125 C14.70345208 37.81488835 15.53190416 37.81727671 16.38546085 37.81973743 C36.55000583 37.87889134 56.71443133 37.95444399 76.87884617 38.04821491 C86.63023866 38.09316715 96.38159468 38.13258316 106.13305664 38.15893555 C114.63312072 38.18192023 123.13306932 38.21532357 131.6330418 38.26120156 C136.1330953 38.2851274 140.63303446 38.30386038 145.1331501 38.31011391 C149.37097114 38.31616764 153.60849968 38.3361779 157.84621239 38.36677551 C159.39936923 38.37555111 160.95256431 38.3792793 162.50574493 38.37750816 C164.63185638 38.37584956 166.75708228 38.39260294 168.8830719 38.41377258 C170.66535863 38.42068603 170.66535863 38.42068603 172.48365116 38.42773914 C178.86077411 39.15124693 183.49838694 41.68441739 187.8125 46.5 C192.5757353 52.57779087 192.91050421 57.7845085 192.484375 65.2109375 C191.87004349 68.84179425 191.08756332 70.90179777 188.875 73.8125 C187.20833333 74.8125 185.54166667 75.8125 183.875 76.8125 C182.86312105 78.47198148 181.8623454 80.13830562 180.875 81.8125 C171.72675702 87.37845284 156.57904182 85.14396882 146.15917969 85.36474609 C143.76748347 85.41673949 141.3759463 85.47383671 138.984375 85.53125 C138.2592572 85.54482544 137.5341394 85.55840088 136.78704834 85.5723877 C132.72939612 85.67098108 128.86017167 86.04137787 124.875 86.8125 C124.72466309 87.81047607 124.72466309 87.81047607 124.57128906 88.82861328 C124.10458179 91.86750204 123.61502229 94.90228729 123.125 97.9375 C122.96773438 98.98421875 122.81046875 100.0309375 122.6484375 101.109375 C121.69095314 106.9279338 120.81974538 111.32418735 116.875 115.8125 C116.215 115.8125 115.555 115.8125 114.875 115.8125 C114.71064453 116.93785156 114.71064453 116.93785156 114.54296875 118.0859375 C111.71037104 136.37116175 111.71037104 136.37116175 106.875 141.8125 C106.215 141.8125 105.555 141.8125 104.875 141.8125 C104.64425781 142.98167969 104.41351563 144.15085937 104.17578125 145.35546875 C103.84733581 146.90385439 103.51785378 148.45202039 103.1875 150 C103.03861328 150.76892578 102.88972656 151.53785156 102.73632812 152.33007812 C101.57722955 157.62556771 99.98800117 160.09901009 95.875 163.8125 C94.81754873 165.90146766 94.81754873 165.90146766 94.3125 168.0625 C90.75867259 179.97477064 90.75867259 179.97477064 86.3125 184.3125 C83.40585524 187.29367411 82.71356125 189.75089422 81.55078125 193.66796875 C80.4003667 197.31870625 78.77083519 200.00335854 75.9375 202.5625 C73.38321604 205.34899159 72.27436496 208.19952394 70.90234375 211.69140625 C69.82266674 213.92054927 68.79115932 215.25468736 66.875 216.8125 C66.215 216.8125 65.555 216.8125 64.875 216.8125 C64.71644531 217.53695312 64.55789063 218.26140625 64.39453125 219.0078125 C62.66578508 226.17112535 60.81087567 230.33076383 55.25 235.25 C53.596192 236.95364655 53.596192 236.95364655 52.5 240.25 C50.875 243.8125 50.875 243.8125 48.45703125 245.6640625 C45.47295759 248.14702848 44.47567322 250.21443084 42.9375 253.75 C39.85074627 260.29550086 39.85074627 260.29550086 36.8125 262.5625 C33.9923585 264.72260838 33.01797867 266.01008271 31.3125 269 C29.64618529 271.87276983 29.09433328 272.69552225 26.0625 274.3125 C25.340625 274.4775 24.61875 274.6425 23.875 274.8125 C23.8477585 276.22905793 23.82849533 277.64577045 23.8125 279.0625 C23.79509766 280.24585938 23.79509766 280.24585938 23.77734375 281.453125 C23.87342921 283.77454976 24.05510764 285.63717866 24.875 287.8125 C25.82375 288.286875 26.7725 288.76125 27.75 289.25 C31.26262658 291.00631329 32.25442145 292.30124647 33.875 295.8125 C33.875 296.4725 33.875 297.1325 33.875 297.8125 C34.9475 297.998125 36.02 298.18375 37.125 298.375 C40.68032006 299.36140617 40.80768563 299.69524271 42.8125 303.1875 C43.26109375 304.12529297 43.26109375 304.12529297 43.71875 305.08203125 C45.52775401 307.78942577 48.02179327 308.53342632 50.9375 309.79296875 C53.43246764 311.10584487 54.80639308 313.00928265 56.47265625 315.2421875 C58.78242603 317.82861494 61.69191227 319.4598774 64.60546875 321.30078125 C66.7626624 322.73767272 68.63655577 324.27049354 70.5625 326 C72.77841554 327.985091 74.29738124 329.01126764 77.0625 330.3125 C79.875 331.8125 79.875 331.8125 81.75 334.8125 C84.24605062 338.33633617 85.82983613 338.85971457 89.875 339.87890625 C91.875 340.8125 91.875 340.8125 93.6875 343.18359375 C96.32072107 346.34816121 99.18947848 347.70104812 102.875 349.3125 C107.71751831 351.42983541 110.67047013 353.53511877 113.875 357.8125 C116.18465848 358.86602843 118.5179774 359.86969096 120.875 360.8125 C123.3992483 362.83189864 123.82333532 363.65750596 124.875 366.8125 C126.0815625 367.5240625 126.0815625 367.5240625 127.3125 368.25 C130.23982664 370.03495527 130.73504947 370.64539762 131.875 373.8125 C132.1187713 376.508157 132.24508862 379.0561061 132.25 381.75 C132.27449219 382.45318359 132.29898437 383.15636719 132.32421875 383.88085938 C132.34502043 387.58009204 131.9852255 389.63919089 129.984375 392.78515625 C127.875 394.8125 127.875 394.8125 125.75 395.3125 C125.13125 395.4775 124.5125 395.6425 123.875 395.8125 C123.17841637 397.46688613 122.51403117 399.13504318 121.875 400.8125 C119.29543297 403.55574514 117.7842082 403.82259809 113.9765625 404.24609375 C112.48447352 404.26328981 110.99212144 404.2641008 109.5 404.25 C108.7575 404.26998047 108.015 404.28996094 107.25 404.31054688 C101.97723578 404.30588896 99.10811799 403.17889651 94.875 399.8125 C90.44925097 396.69435864 85.9719341 394.36506438 81.046875 392.15625 C78.875 390.8125 78.875 390.8125 77.8671875 388.76953125 C77.02798311 386.62489217 77.02798311 386.62489217 74.7734375 385.79296875 C73.94070313 385.53128906 73.10796875 385.26960938 72.25 385 C67.48562754 383.26377245 64.53235882 381.01429517 60.89453125 377.546875 C58.11032982 375.15580066 55.05409632 373.6300113 51.7578125 372.05078125 C49.49698686 370.5638897 49.06145577 369.19482786 47.875 366.8125 C46.07631573 365.6630478 46.07631573 365.6630478 44 364.875 C40.2537768 363.15173733 38.11981435 361.36678939 35.875 357.8125 C35.875 357.1525 35.875 356.4925 35.875 355.8125 C35.153125 355.73 34.43125 355.6475 33.6875 355.5625 C30.26560935 354.64999583 28.43553252 353.23078071 25.875 350.8125 C25.545 349.8225 25.215 348.8325 24.875 347.8125 C22.94801255 346.56726608 22.94801255 346.56726608 20.625 345.5 C17.00142073 343.58866148 14.78171704 341.82195271 12.31640625 338.48046875 C10.39791494 336.26042596 8.19448487 334.60591614 5.875 332.8125 C1.93420089 329.75720783 -1.0694241 326.72745662 -4.125 322.8125 C-6.55887753 321.59556124 -8.54338846 321.49290104 -11.25 321.25 C-12.16007813 321.16621094 -13.07015625 321.08242188 -14.0078125 320.99609375 C-14.70648438 320.93550781 -15.40515625 320.87492187 -16.125 320.8125 C-16.39828125 321.43511719 -16.6715625 322.05773437 -16.953125 322.69921875 C-18.125 324.8125 -18.125 324.8125 -20.875 326.625 C-23.66198468 328.50085507 -25.12998024 329.84430387 -27.1875 332.375 C-29.57923932 335.31484625 -31.85166533 336.88207186 -35.125 338.8125 C-35.95 339.823125 -36.775 340.83375 -37.625 341.875 C-40.125 344.8125 -40.125 344.8125 -42.6875 345.8125 C-45.42582819 346.66854856 -45.42582819 346.66854856 -47.0625 349.75 C-49.41664598 353.24555009 -51.24820876 354.29549473 -55.125 355.8125 C-55.785 355.8125 -56.445 355.8125 -57.125 355.8125 C-57.29 356.534375 -57.455 357.25625 -57.625 358 C-59.53003122 361.57193354 -61.68200073 362.59154246 -65.12109375 364.56640625 C-67.33221091 365.83033445 -67.33221091 365.83033445 -69.5 368.25 C-72.63022964 371.30570037 -76.00666085 373.16945499 -79.78125 375.33984375 C-82.30805286 376.79972758 -82.30805286 376.79972758 -84.625 379.375 C-87.67726125 382.35095472 -90.83648205 383.72962631 -94.72265625 385.40625 C-97.29029264 386.70404903 -97.29029264 386.70404903 -99 389.28125 C-101.69665009 392.49343614 -104.15969905 393.34634639 -108.0625 394.8125 C-113.26285486 396.77028065 -116.36278942 398.7205071 -120.125 402.8125 C-123.23886082 404.36943041 -126.52244932 404.03817195 -129.9375 404.0625 C-131.00581055 404.0934375 -131.00581055 404.0934375 -132.09570312 404.125 C-138.27791873 404.17075183 -141.25957058 402.54143459 -145.6875 398.4375 C-151.86193899 391.78810416 -153.45134977 387.83731867 -153.33203125 378.8125 C-152.81665403 371.34439235 -148.62923757 365.62870787 -143.125 360.8125 C-140.84852866 359.63138559 -138.56693681 358.71299439 -136.171875 357.80078125 C-133.55430317 356.53695363 -132.30069877 354.64060561 -130.62890625 352.31640625 C-127.91833889 349.60583889 -124.25993389 348.54973864 -120.765625 347.1015625 C-117.62134344 345.56663215 -115.8602007 343.74125095 -113.58984375 341.1484375 C-111.81888052 339.53331903 -110.27766832 339.02296535 -108 338.3125 C-103.66582063 336.93046922 -102.60051725 334.6031358 -100.125 330.8125 C-98.13608055 329.64400982 -96.10177699 328.73964552 -93.99609375 327.80078125 C-91.31635925 326.38538912 -89.98564076 324.18058824 -88.125 321.8125 C-86.71355731 320.81618751 -85.27228224 319.86153724 -83.8125 318.9375 C-79.92580125 316.46935087 -76.96582453 313.74195578 -73.8203125 310.40625 C-72.09175006 308.78124199 -70.47346744 307.77624461 -68.375 306.6875 C-65.01225973 305.10488402 -65.01225973 305.10488402 -63.625 302.25 C-62.125 299.8125 -62.125 299.8125 -58.625 298.375 C-54.36002317 296.47099249 -53.94432656 294.97096071 -52.125 290.8125 C-49.75017153 288.6603117 -48.18988281 287.8341276 -45.125 286.8125 C-44.795 283.1825 -44.465 279.5525 -44.125 275.8125 C-45.775 275.1525 -47.425 274.4925 -49.125 273.8125 C-51.43979055 272.03189189 -52.20525714 270.63669865 -53.4375 267.9375 C-55.14359824 264.77805881 -56.83832598 263.37221415 -59.6484375 261.2265625 C-61.89081017 259.07910508 -62.86996722 256.51871398 -64.12890625 253.71875 C-65.14442313 251.54372233 -65.14442313 251.54372233 -67.625 249.3125 C-71.46546708 245.47203292 -73.42154333 240.92287 -75.125 235.8125 C-75.8675 235.461875 -76.61 235.11125 -77.375 234.75 C-81.56616857 231.79713124 -83.23688684 227.49662754 -85.125 222.8125 C-85.125 222.1525 -85.125 221.4925 -85.125 220.8125 C-85.74246094 220.55855469 -86.35992187 220.30460938 -86.99609375 220.04296875 C-89.45758136 218.62027408 -90.0288715 217.67799526 -91.1875 215.125 C-91.52007812 214.4134375 -91.85265625 213.701875 -92.1953125 212.96875 C-93.02741682 211.03882737 -93.79915775 209.08313881 -94.5625 207.125 C-95.90357233 203.72651513 -95.90357233 203.72651513 -98.5625 201.625 C-101.34195743 198.57437599 -101.95914146 196.648782 -103.125 192.75 C-104.6247216 187.7650954 -105.86338665 185.87211984 -110.125 182.8125 C-111.83101902 179.54452578 -112.78435225 176.00080612 -113.796875 172.46875 C-115.25536841 167.46013711 -115.25536841 167.46013711 -118.625 163.5625 C-124.60361512 156.98602336 -124.64004324 146.27708395 -124.4140625 137.76171875 C-123.8102468 131.60116669 -121.75559592 126.07752256 -117.125 121.8125 C-109.55766098 117.96680312 -101.36200026 117.73396387 -93.25 119.875 C-90.00027826 121.0758604 -88.55882973 122.12498828 -86.9375 125.1875 C-86.65519531 125.81269531 -86.37289062 126.43789063 -86.08203125 127.08203125 C-85.10293482 129.15675599 -85.10293482 129.15675599 -82.125 130.875 C-77.77636153 134.12560725 -77.43196543 139.45324316 -76.1875 144.45703125 C-74.95374187 148.35334828 -73.40904808 150.119843 -70.5625 152.90234375 C-68.56395024 155.55802536 -67.98238586 158.24016522 -67.125 161.4375 C-65.54521894 167.23661299 -63.79025757 169.02197822 -59.125 172.8125 C-57.21211361 177.14289925 -55.125 182.01951381 -55.125 186.8125 C-54.3825 186.956875 -53.64 187.10125 -52.875 187.25 C-49.16245401 189.35940113 -48.67893189 191.72348559 -47.15234375 195.5859375 C-46.17328703 198.0451834 -46.17328703 198.0451834 -43.6875 200.25 C-39.75714349 204.18035651 -36.8190688 209.52879634 -35.66015625 215.01171875 C-35.23357184 217.17629599 -35.23357184 217.17629599 -32.3125 218.5625 C-28.67892605 221.12737573 -27.92462422 222.94418198 -26.1875 226.8671875 C-24.52601955 229.90916274 -21.78869085 231.64825118 -19.125 233.8125 C-17.57312609 236.07842632 -16.37659572 238.35744685 -15.125 240.8125 C-11.61289468 240.98299055 -8.49209925 240.88125569 -5.125 239.8125 C-3.37610236 237.65799767 -2.39602411 235.54741608 -1.2734375 233.015625 C-0.125 230.8125 -0.125 230.8125 3 228.75 C6.51947509 226.37817983 6.75982237 224.83896381 7.96875 220.953125 C9.36692207 217.65054614 11.74458084 215.41732795 14.17578125 212.828125 C16.33820582 210.26304206 17.54470456 207.57232195 18.9140625 204.53515625 C19.875 202.8125 19.875 202.8125 22.375 201 C25.81828301 197.98712737 26.44715032 194.68088658 27.84765625 190.40625 C29.17328852 187.05940656 31.34283741 185.34466259 33.875 182.8125 C35.25126422 179.80140071 36.43293225 176.76253365 37.56640625 173.65234375 C38.95262053 170.64405187 40.33164592 168.91265575 42.875 166.8125 C43.535 166.8125 44.195 166.8125 44.875 166.8125 C44.97296875 166.26722656 45.0709375 165.72195313 45.171875 165.16015625 C46.43052595 158.81264929 47.90799659 151.47475306 52.890625 147.00390625 C55.56398295 144.05163497 55.92692831 141.43485633 56.75 137.5625 C57.77929993 133.13929218 58.69683396 129.43440425 61.8125 126 C65.77555453 121.51915945 66.70348875 115.95176693 67.96264648 110.24487305 C69.21820281 104.93778314 70.87550668 102.65791974 74.875 98.8125 C75.9252421 95.75838317 75.9252421 95.75838317 76.25 92.5625 C76.40210938 91.50546875 76.55421875 90.4484375 76.7109375 89.359375 C76.79214844 88.09867188 76.79214844 88.09867188 76.875 86.8125 C75.31993956 85.25743956 73.83991763 85.68240695 71.67531013 85.67662811 C70.76396974 85.67177037 69.85262934 85.66691262 68.91367257 85.66190767 C67.90076932 85.66161169 66.88786608 85.6613157 65.8442688 85.66101074 C64.77720133 85.65677833 63.71013386 85.65254592 62.61073101 85.64818525 C59.0049717 85.63508198 55.39923455 85.62911667 51.79345703 85.62304688 C49.22005577 85.61511017 46.64665587 85.60672268 44.07325745 85.59791565 C38.51516384 85.57953412 32.95706978 85.56470068 27.39896011 85.55213928 C19.35080108 85.53386033 11.30267125 85.50919301 3.2545353 85.48276538 C-9.817605 85.43992502 -22.88975343 85.40082869 -35.96191406 85.36474609 C-36.74499483 85.36258329 -37.5280756 85.36042049 -38.33488609 85.35819215 C-43.09578306 85.34506264 -47.85668026 85.33202118 -52.61757755 85.31901073 C-59.73984371 85.29954685 -66.86210963 85.28000146 -73.984375 85.26025391 C-74.76347268 85.25809504 -75.54257036 85.25593617 -76.34527706 85.25371188 C-89.35520588 85.2175426 -102.36512045 85.17757679 -115.37502968 85.13495111 C-123.39713835 85.10885298 -131.41924278 85.08617964 -139.4413733 85.06796753 C-145.59943977 85.05374655 -151.75748202 85.03461391 -157.91552925 85.01371574 C-160.43616974 85.00598244 -162.95681595 84.99990298 -165.47746468 84.99562263 C-168.92648428 84.98953886 -172.37543487 84.97747223 -175.82443237 84.96398926 C-176.8150284 84.96369327 -177.80562443 84.96339728 -178.82623851 84.96309233 C-198.75817192 84.85980408 -198.75817192 84.85980408 -205.6875 78.4375 C-212.11239972 71.51837722 -213.44648884 67.42458466 -213.33203125 58.0390625 C-212.88845778 51.12601183 -209.90591088 47.15109687 -205.13671875 42.29296875 C-200.58299775 38.94178378 -195.7224895 38.55948377 -190.21536255 38.5340271 C-189.54461697 38.5282347 -188.87387138 38.5224423 -188.18280017 38.51647437 C-185.94880287 38.49955079 -183.71501312 38.49660454 -181.48095703 38.49365234 C-179.87417601 38.48434887 -178.26739979 38.47417958 -176.66062927 38.46321106 C-172.30782781 38.43594419 -167.95505865 38.42077147 -163.60219431 38.40778303 C-159.04977119 38.392138 -154.4974139 38.36535214 -149.94503784 38.3397522 C-141.3285576 38.29298873 -132.71206494 38.25623284 -124.09552276 38.22307932 C-114.2841632 38.18484077 -104.47286979 38.13543513 -94.66156602 38.08509517 C-74.48275955 37.98181147 -54.30391118 37.89253947 -34.125 37.8125 C-34.11041748 37.18794922 -34.09583496 36.56339844 -34.08081055 35.91992188 C-34.00566898 33.05020448 -33.90923065 30.18156763 -33.8125 27.3125 C-33.77866211 25.83910156 -33.77866211 25.83910156 -33.74414062 24.3359375 C-33.50418488 17.7916898 -33.11888264 11.29060717 -28.6472168 6.09570312 C-27.125 4.8125 -27.125 4.8125 -25.125 4.8125 C-24.795 3.8225 -24.465 2.8325 -24.125 1.8125 C-17.18858478 -2.44393662 -7.62064036 -2.83747248 0 0 Z " fill="#000000" transform="translate(370.125,158.1875)"/>
<path d="M0 0 C1.9184324 1.94743677 3.6512351 3.97002917 5.3671875 6.09765625 C7.01607467 8.18555872 7.01607467 8.18555872 9.75 9.875 C13.28874745 13.21715037 13.858453 17.37407987 15 22 C15.44295011 23.73317108 15.90097328 25.46256943 16.375 27.1875 C16.56835938 27.94417969 16.76171875 28.70085938 16.9609375 29.48046875 C17.93395117 31.83984401 18.9205529 33.25283159 20.4765625 35.234375 C23.92520536 39.88295489 24.47258143 44.81995217 25.3828125 50.41601562 C26.41882564 55.97752252 28.26336492 58.63672425 32 63 C33.06855644 65.58496373 33.67117139 68.20615252 34.25 70.9375 C34.48976563 71.95360352 34.48976563 71.95360352 34.734375 72.99023438 C35.49949123 76.31530197 36.06844829 79.54812959 36.4921875 82.94140625 C36.65976562 83.95074219 36.82734375 84.96007812 37 86 C38.3153341 86.70151152 39.65117592 87.36525925 41 88 C43.40593782 92.80581534 44.4955595 97.09682093 45.3125 102.4375 C46.07699282 106.87316781 46.79177614 110.3750651 49.9375 113.75 C54.07711526 118.33824351 54.54180959 124.20627839 55.44311523 130.12402344 C56.41912203 135.95061318 58.01723884 138.66307756 62 143 C64.40859414 147.64950135 64.87226459 152.8008149 65.50390625 157.94140625 C66.15540509 162.06233265 67.0930051 164.39926925 69.984375 167.453125 C73.57274632 171.27240964 74.2226115 174.80488929 75 179.875 C76.30353823 187.17017103 76.30353823 187.17017103 80 193.5 C83.74663293 198.21139091 84.45308062 203.53456946 85.35546875 209.35546875 C86.12405889 213.72349585 87.12751681 216.45070806 89.9921875 219.87890625 C93.75857718 224.49542062 94.35897308 229.0854492 95.125 234.875 C95.38226004 236.74968704 95.65497958 238.62233697 95.9453125 240.4921875 C96.05375488 241.31058105 96.16219727 242.12897461 96.27392578 242.97216797 C96.81231295 245.17807079 96.81231295 245.17807079 98.96313477 246.09008789 C99.63530029 246.39035889 100.30746582 246.69062988 101 247 C103.75330627 252.13383711 104.79120756 257.22179905 105.6875 262.9375 C105.81705078 263.71673828 105.94660156 264.49597656 106.08007812 265.29882812 C106.3946519 267.19792168 106.69845882 269.09879356 107 271 C107.99 271.33 108.98 271.66 110 272 C113.89490531 276.89285369 114.31170123 282.96918898 115.28515625 288.96289062 C116.36556481 294.80356081 117.99940485 297.64198491 122 302 C124.02123065 305.95930942 124.55393347 309.94423632 125.25 314.3125 C126.04191701 318.78862241 126.78655497 322.38376385 129.9375 325.8125 C133.95404634 330.29287355 134.37993742 335.64502713 135.45849609 341.37207031 C136.34241844 345.7816891 137.19996545 348.97554024 140.0625 352.5625 C146.16409726 360.40961749 146.64177425 373.6871647 146.3515625 383.27734375 C145.59138568 389.16449091 143.73126622 394.12836084 139.6875 398.5 C132.1317972 402.71713645 123.90691008 402.96796678 115.5625 401.25 C111.86296917 399.95191901 110.79042577 399.38191534 109 396 C108.71125 395.34 108.4225 394.68 108.125 394 C107.03704232 391.77384689 107.03704232 391.77384689 104.5 390 C99.92593402 386.34074722 99.64082417 382.39188638 98.75 376.75 C97.96298659 372.26705256 97.25360892 368.65813648 94.0625 365.25 C89.90390588 360.65096365 89.45200921 354.72496009 88.55688477 348.78808594 C87.6077177 343.09881179 86.14535224 341.11980307 82 337 C80.51489925 333.05115869 79.80887101 328.89876366 78.97265625 324.7734375 C77.91518169 319.73586155 77.91518169 319.73586155 74.59375 315.9765625 C69.93235847 314.22152051 66.04642106 313.86833441 61.03630066 313.84609985 C60.33545091 313.8417176 59.63460117 313.83733535 58.91251355 313.8328203 C56.5643129 313.81946678 54.21614974 313.81326127 51.86791992 313.80712891 C50.1841261 313.79922536 48.50033395 313.79095625 46.81654358 313.78234863 C41.28786835 313.75616265 35.75918567 313.74082666 30.23046875 313.7265625 C28.32623096 313.72120184 26.42199321 313.71582433 24.51775551 313.71043015 C16.59721501 313.68880846 8.67667653 313.67007129 0.75611401 313.65880775 C-10.59143854 313.64256368 -21.93864897 313.60936663 -33.28607255 313.55240691 C-41.26751296 313.51370944 -49.24886183 313.49417543 -57.23039359 313.48888719 C-61.99656863 313.48523412 -66.76237849 313.47321716 -71.52845192 313.44078445 C-76.01259406 313.41070638 -80.49614997 313.40439095 -84.98037148 313.41616821 C-86.62387782 313.41638895 -88.26741137 313.40808327 -89.91082382 313.39051437 C-101.46004897 313.14021383 -101.46004897 313.14021383 -111 319 C-111.66 319 -112.32 319 -113 319 C-113.21914063 320.27875 -113.43828125 321.5575 -113.6640625 322.875 C-114.30332956 326.36375867 -114.97411321 329.84236652 -115.7265625 333.30859375 C-115.89752441 334.10837646 -116.06848633 334.90815918 -116.24462891 335.73217773 C-117.33342119 339.00101792 -119.21860396 341.2320213 -121.5546875 343.71484375 C-124.15939427 347.83309635 -124.7117171 352.7285056 -125.53125 357.48071289 C-126.45545898 362.56331736 -127.69521582 365.9751072 -131 370 C-131.66 370 -132.32 370 -133 370 C-133.17015625 371.08539062 -133.3403125 372.17078125 -133.515625 373.2890625 C-133.75966039 374.73450289 -134.00449462 376.17980856 -134.25 377.625 C-134.35957031 378.33785156 -134.46914063 379.05070312 -134.58203125 379.78515625 C-135.44938615 384.76103438 -136.81273169 388.04975626 -140 392 C-140.70125 392.165 -141.4025 392.33 -142.125 392.5 C-142.74375 392.665 -143.3625 392.83 -144 393 C-144.268125 393.94875 -144.53625 394.8975 -144.8125 395.875 C-146 399 -146 399 -148.875 400.875 C-155.33269799 403.13991287 -162.97507466 402.95440234 -169.4375 400.8125 C-175.36930372 397.79456477 -178.51788376 394.1281627 -181 388 C-181.39839413 384.88492365 -181.3744771 381.82354133 -181.3125 378.6875 C-181.31733398 377.4819043 -181.31733398 377.4819043 -181.32226562 376.25195312 C-181.2560251 368.76677421 -180.54761564 361.18475727 -176 355 C-175.2409436 354.31611206 -175.2409436 354.31611206 -174.46655273 353.6184082 C-172.73444935 351.70695268 -172.4272539 350.49857465 -171.97265625 347.98046875 C-171.81990234 347.20509766 -171.66714844 346.42972656 -171.50976562 345.63085938 C-171.21379063 344.0139829 -170.91949392 342.39679822 -170.62695312 340.77929688 C-169.61199236 335.64503929 -168.35081459 332.07212497 -165 328 C-164.34 328 -163.68 328 -163 328 C-162.89977539 327.39526855 -162.79955078 326.79053711 -162.69628906 326.16748047 C-162.22904621 323.40057639 -161.73973936 320.63800716 -161.25 317.875 C-161.09273437 316.92367188 -160.93546875 315.97234375 -160.7734375 314.9921875 C-159.76833726 309.4254785 -158.7133198 305.34195268 -155 301 C-154.34 301 -153.68 301 -153 301 C-152.86537354 300.14619751 -152.86537354 300.14619751 -152.72802734 299.27514648 C-152.30118325 296.65800213 -151.83843086 294.04840378 -151.375 291.4375 C-151.23449219 290.54224609 -151.09398437 289.64699219 -150.94921875 288.72460938 C-149.89587864 282.97337235 -148.4158773 279.96410521 -144.38623047 275.78979492 C-141.80973522 272.46322102 -141.48273985 268.50935701 -140.875 264.4375 C-139.90273519 258.28142728 -138.86585594 254.08396526 -135 249 C-131.46508412 243.86813389 -130.91488873 238.75883479 -129.94140625 232.69140625 C-128.92150657 228.69221457 -127.39595716 226.32746948 -125 223 C-121.79304282 217.40472341 -121.05051567 212.07271476 -120.13671875 205.75390625 C-119.04564683 202.15074435 -118.48216978 201.19449913 -116.02734375 198.625 C-112.30499631 194.63287651 -111.66329198 190.71905624 -110.875 185.4375 C-109.90273519 179.28142728 -108.86585594 175.08396526 -105 170 C-102.1822797 165.90633088 -101.32238547 162.39515159 -100.5 157.5 C-99.68979804 152.67736928 -98.9136969 148.98403454 -96 145 C-95.34 144.67 -94.68 144.34 -94 144 C-93.1860273 141.83337986 -93.1860273 141.83337986 -92.5625 139.1875 C-92.30597656 138.20136719 -92.04945313 137.21523438 -91.78515625 136.19921875 C-91.25506027 134.03927543 -90.74243326 131.8749805 -90.24609375 129.70703125 C-89.99988281 128.64871094 -89.75367188 127.59039063 -89.5 126.5 C-89.2834375 125.5203125 -89.066875 124.540625 -88.84375 123.53125 C-87.95957245 120.87871735 -87.21537819 119.67283659 -85 118 C-84.34 118 -83.68 118 -83 118 C-82.89977539 117.39526855 -82.79955078 116.79053711 -82.69628906 116.16748047 C-82.22904621 113.40057639 -81.73973936 110.63800716 -81.25 107.875 C-81.09273437 106.92367187 -80.93546875 105.97234375 -80.7734375 104.9921875 C-79.76833726 99.4254785 -78.7133198 95.34195268 -75 91 C-74.34 91 -73.68 91 -73 91 C-72.91024902 90.43079834 -72.82049805 89.86159668 -72.72802734 89.27514648 C-72.30118325 86.65800213 -71.83843086 84.04840378 -71.375 81.4375 C-71.23449219 80.54224609 -71.09398437 79.64699219 -70.94921875 78.72460938 C-69.89587864 72.97337235 -68.4158773 69.96410521 -64.38623047 65.78979492 C-61.80973522 62.46322102 -61.48273985 58.50935701 -60.875 54.4375 C-59.90273519 48.28142728 -58.86585594 44.08396526 -55 39 C-52.17528654 34.91177302 -51.41884377 31.53047588 -50.6875 26.625 C-49.57030644 20.12175749 -47.71907995 16.51719418 -43 12 C-42.401875 11.030625 -41.80375 10.06125 -41.1875 9.0625 C-36.44202213 2.41883099 -31.81264182 -2.1323457 -23.5625 -3.5625 C-15.28294907 -4.37403125 -7.34266825 -4.29476822 0 0 Z M-17.12109375 77.58203125 C-20.6172906 79.43920159 -23.28688852 81.11575089 -24.74121094 84.95849609 C-25.56844813 88.07523786 -26.18579468 91.18880234 -26.68334961 94.37426758 C-27.50511051 99.54781212 -28.81852242 102.70231921 -32 107 C-34.55300269 111.46028104 -35.5444752 115.30708126 -36.3125 120.375 C-37.07787986 124.84105865 -37.79503206 128.39368438 -40.9375 131.8125 C-44.96525785 136.29886394 -45.57468445 141.80643671 -46.61889648 147.56762695 C-47.55479524 152.6167388 -48.55915302 156.80075182 -52.53417969 160.38232422 C-54.26576364 162.29329611 -54.57286314 163.50207365 -55.02734375 166.01953125 C-55.25647461 167.18258789 -55.25647461 167.18258789 -55.49023438 168.36914062 C-55.78620937 169.9860171 -56.08050608 171.60320178 -56.37304688 173.22070312 C-57.38745363 178.35215821 -58.85142562 181.71626598 -62 186 C-65.0536672 191.40873602 -66.05093841 196.60068023 -67.15625 202.66015625 C-68.15311727 206.60608919 -69.46854922 209.62779084 -72.53320312 212.3737793 C-74.31505015 214.34929246 -74.60082865 215.67093334 -75.0625 218.2734375 C-75.21976563 219.0984375 -75.37703125 219.9234375 -75.5390625 220.7734375 C-75.76722656 222.06121094 -75.76722656 222.06121094 -76 223.375 C-78.15783074 235.4442228 -78.15783074 235.4442228 -82.53125 239.37695312 C-84.26698472 241.29503232 -84.58837239 242.53156909 -85.0625 245.0546875 C-85.21976563 245.83457031 -85.37703125 246.61445312 -85.5390625 247.41796875 C-85.76722656 248.63419922 -85.76722656 248.63419922 -86 249.875 C-87.83371842 259.55641164 -87.83371842 259.55641164 -91 264 C-85.06573916 268.01232267 -78.90200973 267.41522621 -71.94555664 267.37231445 C-69.97138008 267.37779045 -69.97138008 267.37779045 -67.95732117 267.38337708 C-64.35804948 267.39275858 -60.75905106 267.38338339 -57.15980077 267.37004495 C-53.38611024 267.35869911 -49.61243255 267.36284044 -45.83872986 267.36479187 C-39.50124671 267.36567397 -33.1638707 267.35461308 -26.82641602 267.33618164 C-19.51006636 267.31502443 -12.19387369 267.31150272 -4.87749964 267.3177436 C2.17260039 267.32344844 9.2226454 267.31777782 16.2727375 267.30657005 C19.26738063 267.30193795 22.26198994 267.3010442 25.25663567 267.3031559 C29.44322735 267.30539808 33.62960133 267.29089442 37.81616211 267.2746582 C39.05326935 267.27713562 40.29037659 267.27961304 41.56497192 267.28216553 C47.42511902 267.24591401 52.47788557 267.0281392 58 265 C57.63328928 261.82184042 56.81726101 260.80462793 54.5703125 258.40234375 C51.38567582 254.66804254 50.83283954 250.92805101 50.0625 246.1875 C48.71814764 238.86129746 48.71814764 238.86129746 45 232.5 C41.21689589 227.74978657 40.50938774 222.33180916 39.55664062 216.46875 C38.55201424 210.84866614 36.82266022 208.21625706 33 204 C30.58071428 199.32271427 30.09764486 194.1342842 29.40820312 188.97070312 C28.53014577 183.55344868 26.64704066 181.06546083 23 177 C20.97876935 173.04069058 20.44606653 169.05576368 19.75 164.6875 C18.95127092 160.15503805 18.16165687 156.55284397 15 153.0625 C11.29795575 148.93189398 10.78713475 144.12863469 10.11328125 138.80883789 C9.43724209 133.92362182 7.94560797 130.91996778 5 127 C1.44051556 121.1753891 0.16515385 115.63082431 -0.60961914 108.89892578 C-1.19869639 104.82667407 -2.10626777 102.59511382 -4.96484375 99.58984375 C-8.65261604 95.66671726 -9.3563734 91.83114324 -10.1875 86.625 C-10.68409411 83.69163012 -11.26952675 80.89207777 -12 78 C-14.83951288 76.74460929 -14.83951288 76.74460929 -17.12109375 77.58203125 Z " fill="#000000" transform="translate(938,721)"/>
<path d="M0 0 C1.12631836 -0.0299707 1.12631836 -0.0299707 2.27539062 -0.06054688 C6.21419331 -0.05708267 8.13269993 0.16301533 11.53515625 2.3359375 C13.5625 4.4375 13.5625 4.4375 14.5625 6.5 C15.47375527 8.68232895 15.47375527 8.68232895 18.0625 9.9375 C20.89044645 11.63426787 21.36805058 12.44394545 22.5625 15.4375 C24.01342521 23.62435708 23.71335479 32.143587 23.72021484 40.42675781 C23.7248955 41.79631713 23.73004107 43.16587492 23.73561096 44.53543091 C23.74679863 47.46162008 23.75527667 50.38779962 23.76173019 53.31400299 C23.77250124 57.94592475 23.79276507 62.57777585 23.81484985 67.20965576 C23.87648441 80.37281079 23.93084621 93.53595832 23.96386719 106.69921875 C23.9822274 113.98676316 24.01116814 121.27418571 24.0518719 128.5616405 C24.07289332 132.40985064 24.08839251 136.25790771 24.09067917 140.10617828 C24.0928305 143.72118197 24.10874875 147.33586531 24.13506889 150.95077133 C24.14564933 152.90187519 24.14151718 154.85304165 24.1368866 156.8041687 C24.20415871 163.90985067 24.38694058 169.60070584 29.08203125 175.2734375 C31.51433465 178.82883613 32.22606827 182.91727789 33.25 187.0625 C33.47494141 187.93390625 33.69988281 188.8053125 33.93164062 189.703125 C35.5625 196.10759403 35.5625 196.10759403 35.5625 198.4375 C36.4596875 198.7778125 36.4596875 198.7778125 37.375 199.125 C41.01897949 201.31138769 42.23755029 204.71374838 43.9375 208.5 C45.35082036 211.5097041 45.35082036 211.5097041 47.8125 213.1875 C50.53338079 215.41367519 51.76711356 217.19125717 53.625 220.125 C57.1848395 225.42955204 61.47767139 228.72033941 66.6953125 232.33203125 C69.5625 234.4375 69.5625 234.4375 72.20703125 237.10546875 C74.51117232 239.67638382 74.51117232 239.67638382 78.125 240.9375 C81.5625 242.4375 81.5625 242.4375 83.22265625 244.90234375 C86.53348337 248.48953374 89.74837058 248.73110398 94.4375 249.5 C100.43610399 250.52260052 104.60714444 251.64332477 109.5625 255.4375 C114.38791598 258.65444399 118.76065738 258.56145218 124.46411133 258.55102539 C125.47470108 258.55124443 125.47470108 258.55124443 126.50570679 258.5514679 C128.71868174 258.55077472 130.93157111 258.54301036 133.14453125 258.53515625 C134.68438165 258.53328995 136.22423265 258.53186705 137.76408386 258.53086853 C141.80660659 258.52706002 145.84909309 258.51724402 149.89160156 258.50616455 C154.02082835 258.49591455 158.15006102 258.49136323 162.27929688 258.48632812 C170.3737145 258.4756202 178.46810273 258.45856386 186.5625 258.4375 C186.5625 257.7775 186.5625 257.1175 186.5625 256.4375 C186.01980469 256.20675781 185.47710937 255.97601562 184.91796875 255.73828125 C180.09856875 253.54132954 178.30140332 252.00233886 175.5625 247.4375 C173.768125 246.633125 173.768125 246.633125 171.9375 245.8125 C165.94871534 243.12365791 162.15082691 237.77680481 158.5625 232.4375 C156.46792759 226.73006724 156.6122035 219.10205684 158.75 213.4375 C160.74631174 210.13325987 162.24751081 209.26074405 165.5625 207.4375 C166.57437895 205.77801852 167.5751546 204.11169438 168.5625 202.4375 C172.15571435 199.932615 175.72674946 200.1377054 180 200.125 C181.29808594 200.10824219 182.59617187 200.09148437 183.93359375 200.07421875 C187.71356768 200.45262303 189.57014606 201.15998617 192.5625 203.4375 C192.995625 204.0975 193.42875 204.7575 193.875 205.4375 C195.74950336 207.65913362 196.68410817 207.97293967 199.375 208.875 C203.67101497 210.32023979 206.31916694 212.27525027 209.5625 215.4375 C209.5625 216.0975 209.5625 216.7575 209.5625 217.4375 C210.243125 217.685 210.92375 217.9325 211.625 218.1875 C220.76637008 222.07744471 220.76637008 222.07744471 223.0625 226 C225.18395366 229.44736219 227.87014967 229.9869338 231.5625 231.4375 C234.0867483 233.45689864 234.51083532 234.28250596 235.5625 237.4375 C237.50678026 238.16248586 239.45369231 238.88186549 241.41796875 239.55078125 C244.78523077 240.94307356 246.96032418 242.90037857 249.5625 245.4375 C249.5625 246.0975 249.5625 246.7575 249.5625 247.4375 C250.243125 247.685 250.92375 247.9325 251.625 248.1875 C260.78503521 252.08538732 260.78503521 252.08538732 263 255.9375 C264.75644248 258.74780797 265.61858995 259.08737328 268.5625 260.375 C272.73716664 262.24561565 273.6909923 264.24888752 275.5625 268.4375 C277.20392963 269.4784066 278.86962215 270.48254326 280.5625 271.4375 C283.07064676 275.0267445 282.86230298 278.60456804 282.875 282.875 C282.89175781 284.17308594 282.90851563 285.47117187 282.92578125 286.80859375 C282.3428018 292.63211965 279.6185646 295.50073142 275.5625 299.4375 C274.77875 300.448125 273.995 301.45875 273.1875 302.5 C270.44392388 305.57019233 268.18637131 306.62556435 264.5625 308.4375 C264.129375 309.2625 263.69625 310.0875 263.25 310.9375 C261.24140216 313.9132005 260.35440287 313.99741257 257 314.9375 C254.61596192 315.56622949 254.61596192 315.56622949 252.5625 316.4375 C251.25181667 318.88038628 251.25181667 318.88038628 250.5625 321.4375 C248.4375 322.9375 248.4375 322.9375 245.5625 324.4375 C241.35510034 326.88592375 237.52249397 329.38010513 233.9375 332.6875 C230.877518 335.45338762 228.62517089 335.77613497 224.5625 336.4375 C223.37858777 338.81375345 223.37858777 338.81375345 222.5625 341.4375 C220.37366467 343.46998995 218.36157381 344.52727553 215.625 345.75 C212.53771069 347.45115941 211.14798808 349.13932202 209.0390625 351.89453125 C206.67882583 354.36091613 203.77706449 355.66533114 200.765625 357.2109375 C198.70641042 358.35737966 197.11962619 359.55483643 195.375 361.125 C189.16218664 366.23331321 182.29685832 366.07420156 174.5625 365.4375 C168.01637461 363.69186656 163.78022528 359.57383992 159.5625 354.4375 C156.57107193 348.82857236 156.64155486 341.41627082 158.0625 335.27734375 C159.65263868 331.02191581 161.70979572 329.55648736 165.5625 327.4375 C166.59263277 325.78928756 167.59364628 324.12246298 168.5625 322.4375 C170.72333161 320.49275155 172.36703269 319.50424494 175.125 318.5625 C177.75671358 317.63958937 177.75671358 317.63958937 178.875 315.0625 C181.02315787 311.7209211 183.24630568 310.87029426 186.8203125 309.33203125 C188.74805831 308.55921865 188.74805831 308.55921865 189.5625 306.4375 C188.26609337 306.42536972 188.26609337 306.42536972 186.9434967 306.41299438 C178.72235036 306.33443541 170.50135433 306.24697093 162.28040409 306.14997292 C158.05586466 306.10042957 153.83134531 306.05410317 149.60668945 306.015625 C145.51518138 305.97823287 141.42386121 305.93174295 137.33251762 305.87943649 C135.78638507 305.86117403 134.2402127 305.84596738 132.69401741 305.83415604 C124.50800961 305.76949947 116.42230823 305.45365741 108.28295898 304.53662109 C107.22945676 304.42128997 107.22945676 304.42128997 106.15467167 304.30362892 C99.92546915 303.53288175 95.07913522 301.95413522 90.5625 297.4375 C88.71882025 296.87631021 88.71882025 296.87631021 86.60546875 296.54296875 C85.82236328 296.39150391 85.03925781 296.24003906 84.23242188 296.08398438 C82.59087445 295.78047246 80.9476196 295.48604027 79.30273438 295.20117188 C73.84786311 294.12449376 71.36094308 292.68878238 67.5625 288.4375 C65.43670642 287.41526675 65.43670642 287.41526675 63.25 286.9375 C55.84005038 284.74287266 50.97082616 280.84582616 45.5625 275.4375 C44.0465625 274.7259375 44.0465625 274.7259375 42.5 274 C39.5625 272.4375 39.5625 272.4375 37.625 269.4375 C35.75673847 266.14208264 35.75673847 266.14208264 32 264.9375 C27.74069012 263.07889205 27.50842347 261.49855768 25.5625 257.4375 C24.1084375 256.756875 24.1084375 256.756875 22.625 256.0625 C18.77912483 254.02183154 18.30116608 252.19585421 16.625 248.34765625 C15.57350357 246.11442367 15.57350357 246.11442367 12.5625 244.4375 C8.9969873 242.06049153 8.2436533 240.12001559 6.5625 236.31640625 C5.14390988 233.65100841 2.90418626 232.29884036 0.5625 230.4375 C-1.65029166 226.17582717 -2.8450988 222.14094029 -3.51953125 217.4296875 C-4.40304744 215.09918279 -4.40304744 215.09918279 -7.3828125 213.21484375 C-11.27942742 210.15167633 -11.72546028 206.84391674 -12.5 202.125 C-13.6357751 196.33769292 -14.84735363 191.95310216 -18.3359375 187.10546875 C-24.62745858 177.57894569 -22.59369422 161.34624995 -22.61450195 150.52441406 C-22.62078431 149.06766098 -22.62743259 147.61090944 -22.63441467 146.15415955 C-22.65521901 141.42049223 -22.66578363 136.68682538 -22.67578125 131.953125 C-22.67983544 130.31387059 -22.68395254 128.67461634 -22.68813133 127.03536224 C-22.70711831 119.34137258 -22.72137168 111.6473922 -22.7297433 103.95338368 C-22.73953996 95.09975259 -22.76594968 86.24636986 -22.80624419 77.39282632 C-22.83642365 70.52457353 -22.85121325 63.65639204 -22.85452431 56.78807425 C-22.85686938 52.69551976 -22.86576165 48.60323267 -22.89098549 44.51074982 C-22.91430871 40.66592171 -22.91848269 36.82153655 -22.90822411 32.97665596 C-22.90772994 31.570616 -22.91401513 30.16455382 -22.92778015 28.75858116 C-22.99944119 21.00244817 -22.98927122 14.92046879 -18.4375 8.4375 C-17.11388787 8.0674462 -15.78030953 7.73033351 -14.4375 7.4375 C-13.73598848 6.1221659 -13.07224075 4.78632408 -12.4375 3.4375 C-8.87191748 -0.29139164 -4.84949829 -0.04555464 0 0 Z " fill="#000000" transform="translate(239.4375,757.5625)"/>
<path d="M0 0 C5.5845475 4.64183489 9.4565223 8.6062402 10.20703125 16.0546875 C10.46982801 21.68048475 9.65651563 26.98097047 7 32 C4.5 33.75 4.5 33.75 2 35 C0.96986723 36.64821244 -0.03114628 38.31503702 -1 40 C-3.2887057 42.13612532 -4.5055986 42.92937123 -7.625 43.375 C-8.40875 43.58125 -9.1925 43.7875 -10 44 C-11.10636395 46.39068734 -11.10636395 46.39068734 -12 49 C-14.93987644 51.83488085 -18.12346885 52.85466125 -22 54 C-22 54.66 -22 55.32 -22 56 C-21.12684647 56.01030746 -20.25369293 56.02061493 -19.3540802 56.03123474 C-11.07288274 56.12974315 -2.7917475 56.23232668 5.4893446 56.33933926 C9.74539583 56.39419841 14.00145422 56.44755338 18.25756836 56.49731445 C22.37492846 56.54551122 26.49221775 56.59786322 30.60949135 56.65294075 C32.17011025 56.67311709 33.73074836 56.6918663 35.29140282 56.70907402 C68.22801747 57.07609385 68.22801747 57.07609385 75.78125 63.51953125 C79.61310646 66.07635097 84.2245062 66.4382856 88.71289062 67.19726562 C94.45619352 68.35400825 96.29902018 70.32957077 100 75 C103.13293446 76.37231187 103.13293446 76.37231187 106.5 77.0625 C111.69205751 78.46734082 114.5710621 79.68617489 118 84 C120.30718312 85.93505681 122.22035221 87.09640409 125 88.3125 C128 90 128 90 129.9375 93 C131.80576153 96.29541736 131.80576153 96.29541736 135.5625 97.5 C139.82180988 99.35860795 140.05407653 100.93894232 142 105 C142.969375 105.45375 143.93875 105.9075 144.9375 106.375 C148.78337517 108.41566846 149.26133392 110.24164579 150.9375 114.08984375 C151.98899643 116.32307633 151.98899643 116.32307633 155 118 C158.56878647 120.37919098 159.32282804 122.32422868 161.00390625 126.1328125 C161.96297882 128.24790537 161.96297882 128.24790537 164.5 129.875 C168.83732051 133.56172244 170.10182092 139.19154735 171.80078125 144.50390625 C172.9047044 147.19765055 172.9047044 147.19765055 175.5 149.29296875 C178.74839274 152.81036902 179.19210923 155.70913233 180 160.3125 C181.1667553 166.08335722 182.42292179 170.49580212 185.8984375 175.3359375 C192.35018858 185.08219977 190.15270135 201.85237331 190.16113281 212.95068359 C190.16577531 214.39935427 190.17080182 215.84802376 190.17617798 217.29669189 C190.18915079 221.18882954 190.19571479 225.08095008 190.20018864 228.97310591 C190.20313899 231.40999671 190.20724689 233.84688301 190.21169281 236.28377151 C190.22531661 243.92489896 190.23501287 251.5660159 190.2388947 259.20715463 C190.2433883 268.00018034 190.26101769 276.79305161 190.2898953 285.58603036 C190.31151884 292.40842929 190.32159904 299.23078471 190.32293582 306.05321753 C190.32398169 310.11828634 190.32984519 314.18320894 190.34775543 318.24824142 C190.36425192 322.06512084 190.36638413 325.88174415 190.35761642 329.69864655 C190.35684738 331.09542402 190.36117126 332.4922154 190.37107468 333.88895798 C190.46069882 347.3197984 190.46069882 347.3197984 187 353 C184.4375 354.1875 184.4375 354.1875 182 355 C180.90833725 356.93330603 180.90833725 356.93330603 180 359 C177.43459023 361.63595854 176.00601533 361.99935482 172.28515625 362.3984375 C170.87760482 362.40636737 169.46988432 362.39809291 168.0625 362.375 C167.35931641 362.38660156 166.65613281 362.39820313 165.93164062 362.41015625 C161.44802344 362.38494378 158.54790624 361.77200898 155 359 C154 357.33333333 153 355.66666667 152 354 C150.34051852 352.98812105 148.67419438 351.9873454 147 351 C142.10407329 343.15587766 143.84497083 330.97184752 143.82641602 322.10253906 C143.82009406 320.74283138 143.81332651 319.3831257 143.80615234 318.02342224 C143.79160247 315.11851683 143.77983063 312.21361877 143.77020454 309.30869293 C143.75462143 304.71037662 143.73067738 300.11212636 143.70530701 295.51385498 C143.63443561 282.44629091 143.57424216 269.37869135 143.52319336 256.31103516 C143.49485759 249.07625238 143.45947172 241.84153776 143.41653961 234.60682654 C143.38985778 230.04011533 143.37189863 225.47348093 143.36050236 220.90670729 C143.35135084 218.06453106 143.33397901 215.22244839 143.31432343 212.38032722 C143.3033395 210.44353435 143.30210079 208.5066938 143.30119324 206.56987 C143.39345421 196.39736842 143.39345421 196.39736842 139.01171875 187.53125 C136.53069942 184.40950141 135.70501184 181.30353149 134.8125 177.5 C134.64814453 176.84902344 134.48378906 176.19804687 134.31445312 175.52734375 C133.62164539 172.75050303 133.00015896 170.00102759 132.5625 167.171875 C131.79180245 164.19612611 129.92108421 163.30018816 127.546875 161.51953125 C125.64673465 159.65297924 124.92201423 157.90282047 123.9375 155.4375 C122.28098349 151.29620872 120.56481434 149.73578775 117 147 C115.95172941 145.45577343 114.93451698 143.89030357 113.9375 142.3125 C110.3776605 137.00794796 106.08482861 133.71716059 100.8671875 130.10546875 C98 128 98 128 95.35546875 125.33203125 C93.05132768 122.76111618 93.05132768 122.76111618 89.4375 121.5 C86 120 86 120 84.30859375 117.5390625 C81.12132274 114.03360369 78.16489722 113.69405362 73.625 112.875 C67.37739017 111.67103352 62.05084801 110.33300142 56.875 106.375 C52.98321931 103.5210275 48.81184336 103.87803625 44.12011719 103.88647461 C43.43678314 103.88632858 42.7534491 103.88618256 42.04940796 103.8860321 C39.79853096 103.88672685 37.54773748 103.89449868 35.296875 103.90234375 C33.7331751 103.90420949 32.16947462 103.90563266 30.60577393 103.90663147 C26.49583311 103.91044438 22.38592779 103.9202642 18.27600098 103.93133545 C14.07983887 103.94157593 9.88367101 103.94613474 5.6875 103.95117188 C-2.54168293 103.96188758 -10.77083705 103.97894927 -19 104 C-19 104.66 -19 105.32 -19 106 C-18.45730469 106.23074219 -17.91460938 106.46148437 -17.35546875 106.69921875 C-12.53606875 108.89617046 -10.73890332 110.43516114 -8 115 C-6.80375 115.53625 -5.6075 116.0725 -4.375 116.625 C1.61378466 119.31384209 5.41167309 124.66069519 9 130 C10.97204833 135.41794329 10.4792151 141.84353206 9.25 147.375 C7.85539151 150.30367782 6.42034736 151.85626377 4 154 C3.175 154.845625 2.35 155.69125 1.5 156.5625 C-3.27970896 161.22271624 -5.55173627 162.41594607 -12.4375 162.375 C-13.73558594 162.38273438 -15.03367187 162.39046875 -16.37109375 162.3984375 C-20.13164394 161.98554609 -22.01651263 161.26524041 -25 159 C-25.433125 158.34 -25.86625 157.68 -26.3125 157 C-28.18700336 154.77836638 -29.12160817 154.46456033 -31.8125 153.5625 C-36.10851497 152.11726021 -38.75666694 150.16224973 -42 147 C-42 146.34 -42 145.68 -42 145 C-42.680625 144.7525 -43.36125 144.505 -44.0625 144.25 C-53.20387008 140.36005529 -53.20387008 140.36005529 -55.5 136.4375 C-57.62145366 132.99013781 -60.30764967 132.4505662 -64 131 C-66.5242483 128.98060136 -66.94833532 128.15499404 -68 125 C-69.94428026 124.27501414 -71.89119231 123.55563451 -73.85546875 122.88671875 C-77.22273077 121.49442644 -79.39782418 119.53712143 -82 117 C-82 116.34 -82 115.68 -82 115 C-83.0209375 114.62875 -83.0209375 114.62875 -84.0625 114.25 C-93.22253521 110.35211268 -93.22253521 110.35211268 -95.4375 106.5 C-97.19394248 103.68969203 -98.05608995 103.35012672 -101 102.0625 C-105.17466664 100.19188435 -106.1284923 98.18861248 -108 94 C-109.64142963 92.9590934 -111.30712215 91.95495674 -113 91 C-115.50814676 87.4107555 -115.29980298 83.83293196 -115.3125 79.5625 C-115.32925781 78.26441406 -115.34601562 76.96632813 -115.36328125 75.62890625 C-114.98533938 71.85355143 -114.29370175 69.97847193 -112 67 C-110.9790625 66.505 -110.9790625 66.505 -109.9375 66 C-107.20976506 64.5921368 -107.02999963 62.81533233 -106 60 C-104.75 58.25 -104.75 58.25 -103 57 C-101.989375 56.87625 -100.97875 56.7525 -99.9375 56.625 C-98.968125 56.41875 -97.99875 56.2125 -97 56 C-95.81608777 53.62374655 -95.81608777 53.62374655 -95 51 C-92.79684358 48.9542119 -90.74379109 47.88257092 -88 46.625 C-84.91814617 45.22323098 -84.91814617 45.22323098 -83.25 42.6875 C-80.44916969 39.3420638 -77.3596107 37.75323547 -73.59375 35.62109375 C-71.01783945 34.01114966 -68.95845701 32.26429899 -66.75 30.1875 C-63.50916096 27.17627506 -61.39428269 26.62775467 -57 26 C-55.81608777 23.62374655 -55.81608777 23.62374655 -55 21 C-52.81116467 18.96751005 -50.79907381 17.91022447 -48.0625 16.6875 C-44.97521069 14.98634059 -43.58548808 13.29817798 -41.4765625 10.54296875 C-39.11632583 8.07658387 -36.21456449 6.77216886 -33.203125 5.2265625 C-31.14391042 4.08012034 -29.55712619 2.88266357 -27.8125 1.3125 C-20.29303996 -4.87016715 -8.21664058 -5.0563942 0 0 Z " fill="#000000" transform="translate(873,160)"/>
</svg>
